<mxfile host="app.diagrams.net" modified="2024-03-27T12:47:34.889Z" agent="Mozilla/5.0 (Windows NT 10.0; Win64; x64) AppleWebKit/537.36 (KHTML, like Gecko) Chrome/122.0.0.0 Safari/537.36 Edg/122.0.0.0" etag="XolA-z9xaoXCbcLEeAA1" version="24.2.0" type="github">
  <diagram name="Página-1" id="MX9Ap0yOPpx5GQ5yO05Y">
    <mxGraphModel dx="1002" dy="535" grid="1" gridSize="10" guides="1" tooltips="1" connect="1" arrows="1" fold="1" page="1" pageScale="1" pageWidth="827" pageHeight="1169" math="0" shadow="0">
      <root>
        <mxCell id="0" />
        <mxCell id="1" parent="0" />
        <mxCell id="UvcO7SxR95Yw_EyHBF7w-1" value="MAIN" style="rounded=1;whiteSpace=wrap;html=1;" vertex="1" parent="1">
          <mxGeometry x="32" y="48.5" width="59" height="19" as="geometry" />
        </mxCell>
        <mxCell id="UvcO7SxR95Yw_EyHBF7w-2" value="HOTFLIX" style="rounded=1;whiteSpace=wrap;html=1;" vertex="1" parent="1">
          <mxGeometry x="32" y="130" width="59" height="19" as="geometry" />
        </mxCell>
        <mxCell id="UvcO7SxR95Yw_EyHBF7w-3" value="RELEASE" style="rounded=1;whiteSpace=wrap;html=1;" vertex="1" parent="1">
          <mxGeometry x="32" y="210" width="59" height="19" as="geometry" />
        </mxCell>
        <mxCell id="UvcO7SxR95Yw_EyHBF7w-4" value="DEVELOP" style="rounded=1;whiteSpace=wrap;html=1;" vertex="1" parent="1">
          <mxGeometry x="32" y="290" width="59" height="19" as="geometry" />
        </mxCell>
        <mxCell id="UvcO7SxR95Yw_EyHBF7w-5" value="FEATURE" style="rounded=1;whiteSpace=wrap;html=1;" vertex="1" parent="1">
          <mxGeometry x="32" y="370" width="59" height="19" as="geometry" />
        </mxCell>
        <mxCell id="UvcO7SxR95Yw_EyHBF7w-6" value="" style="ellipse;whiteSpace=wrap;html=1;aspect=fixed;" vertex="1" parent="1">
          <mxGeometry x="127" y="47.5" width="23" height="23" as="geometry" />
        </mxCell>
        <mxCell id="UvcO7SxR95Yw_EyHBF7w-7" value="V 1.0.0" style="text;html=1;align=center;verticalAlign=middle;whiteSpace=wrap;rounded=0;fontSize=14;fontStyle=1" vertex="1" parent="1">
          <mxGeometry x="108.5" y="10" width="60" height="30" as="geometry" />
        </mxCell>
        <mxCell id="UvcO7SxR95Yw_EyHBF7w-8" value="&lt;font style=&quot;font-size: 11px;&quot;&gt;README.MD&lt;/font&gt;&lt;div style=&quot;font-size: 11px;&quot;&gt;&lt;font style=&quot;font-size: 11px;&quot;&gt;RELATÓRIO.DOC&lt;/font&gt;&lt;/div&gt;" style="text;html=1;align=center;verticalAlign=middle;whiteSpace=wrap;rounded=0;fontSize=12;" vertex="1" parent="1">
          <mxGeometry x="180" y="48.5" width="50" height="19" as="geometry" />
        </mxCell>
        <mxCell id="UvcO7SxR95Yw_EyHBF7w-9" style="edgeStyle=orthogonalEdgeStyle;rounded=0;orthogonalLoop=1;jettySize=auto;html=1;exitX=0.5;exitY=1;exitDx=0;exitDy=0;" edge="1" parent="1" source="UvcO7SxR95Yw_EyHBF7w-4" target="UvcO7SxR95Yw_EyHBF7w-4">
          <mxGeometry relative="1" as="geometry" />
        </mxCell>
      </root>
    </mxGraphModel>
  </diagram>
</mxfile>
